# xmcd
#
# Track frame offsets:
#	150
#	17370
#	36961
#	50856
#	68561
#	87159
#	103178
#	106977
#	127707
#	146054
#	163565
#	183784
#	204942
#	233993
#
# Disc length: 3429 seconds
#
# Revision: 0
# Processed by: cddbd v1.5.2PL0 Copyright (c) Steve Scherf et al.
# Submitted via: EasyCDDAExtractor 15.3.0.1
#
DISCID=b20d630e
DTITLE=Christina Perri - Lovestrong.
DYEAR=2011
DGENRE=Pop
TTITLE0=Bluebird
TTITLE1=Arms
TTITLE2=Bang Bang Bang
TTITLE3=Distance
TTITLE4=Jar Of Hearts
TTITLE5=Mine
TTITLE6=Interlude
TTITLE7=Penguin
TTITLE8=Miles
TTITLE9=The Lonely
TTITLE10=Sad Song
TTITLE11=Tragedy
TTITLE12=Distance (Feat. Jason Mraz)
TTITLE13=Data
EXTD=
EXTT0=
EXTT1=
EXTT2=
EXTT3=
EXTT4=
EXTT5=
EXTT6=
EXTT7=
EXTT8=
EXTT9=
EXTT10=
EXTT11=
EXTT12=
EXTT13=
PLAYORDER=
